<?xml version="1.0" standalone="no"?>
<!DOCTYPE svg PUBLIC "-//W3C//DTD SVG 20010904//EN"
 "http://www.w3.org/TR/2001/REC-SVG-20010904/DTD/svg10.dtd">
<svg version="1.0" xmlns="http://www.w3.org/2000/svg"
 width="376.000000pt" height="456.000000pt" viewBox="0 0 376.000000 456.000000"
 preserveAspectRatio="xMidYMid meet">
<metadata>
Created by potrace 1.15, written by Peter Selinger 2001-2017
</metadata>
<g transform="translate(0.000000,456.000000) scale(0.100000,-0.100000)"
fill="#000000" stroke="none">
<path d="M1400 4294 c-191 -35 -296 -78 -353 -144 -41 -48 -54 -92 -38 -131
41 -110 224 -192 459 -206 l92 -6 0 -143 0 -144 -25 0 c-25 0 -25 -1 -9 -25
l16 -25 -343 0 -344 0 -303 -243 -304 -242 641 -3 641 -2 0 -105 0 -105 -25 0
-25 0 25 -50 25 -50 -520 0 -520 0 0 -245 0 -245 520 0 520 0 0 -65 c0 -63 -1
-65 -25 -65 l-25 0 25 -50 25 -50 -520 0 -520 0 0 -245 0 -245 520 0 520 0 0
-65 c0 -63 -1 -65 -25 -65 l-25 0 25 -50 25 -50 -357 0 -358 0 -283 -243 -283
-242 600 -3 601 -2 0 -25 c0 -20 -5 -25 -25 -25 l-25 0 25 -49 24 -49 -107 -7
c-235 -15 -396 -74 -437 -160 -53 -113 111 -211 396 -236 308 -27 603 55 633
176 9 37 -18 88 -63 120 -74 51 -230 95 -336 95 -30 0 -57 4 -60 10 -3 5 3 27
15 49 25 50 25 51 -5 51 -20 0 -25 5 -25 25 l0 25 238 0 237 0 283 243 283
242 -475 3 c-262 1 -476 5 -476 7 0 3 9 23 20 45 25 49 25 50 -5 50 -24 0 -25
2 -25 65 l0 65 440 0 440 0 0 245 0 245 -435 0 c-239 0 -435 2 -435 5 0 3 9
23 20 45 25 49 25 50 -5 50 -24 0 -25 2 -25 65 l0 65 440 0 440 0 0 245 0 245
-435 0 c-239 0 -435 2 -435 5 0 3 9 23 20 45 25 49 25 50 -5 50 l-25 0 0 105
0 105 258 0 257 0 303 243 304 242 -531 5 c-468 4 -529 7 -521 20 15 24 12 30
-15 30 l-25 0 0 144 0 144 58 7 c219 26 375 103 413 204 38 98 -88 209 -291
256 -72 17 -296 29 -350 19z m352 -29 c105 -24 214 -80 253 -128 89 -113 -22
-239 -258 -293 -113 -26 -331 -26 -444 0 -109 25 -219 80 -258 129 -126 161
137 323 505 313 70 -2 159 -12 202 -21z m-191 -827 l12 -23 10 23 10 22 525 0
525 0 -294 -235 -294 -235 -894 0 -894 0 294 235 294 235 347 0 347 0 12 -22z
m849 -1013 l0 -235 -955 0 -955 0 0 235 0 235 955 0 955 0 0 -235z m0 -720 l0
-235 -955 0 -955 0 0 235 0 235 955 0 955 0 0 -235z m30 -522 c-24 -21 -148
-127 -275 -235 l-230 -198 -834 0 -835 0 44 38 c24 20 148 126 275 234 l230
198 834 0 835 0 -44 -37z m-779 -628 c179 -38 283 -112 263 -189 -46 -186
-720 -237 -960 -74 -41 28 -67 78 -58 112 19 79 172 147 369 167 103 9 301 1
386 -16z"/>
<path d="M2953 2646 l-258 -122 -3 -250 -2 -249 256 -120 c141 -66 262 -120
269 -120 7 0 126 54 264 120 l251 119 0 249 0 248 -217 106 c-120 58 -237 113
-260 123 l-41 18 -259 -122z m660 -99 l87 -40 0 -232 0 -231 -235 -114 c-129
-62 -242 -113 -249 -113 -8 0 -123 51 -255 113 l-241 114 0 230 0 231 248 116
247 116 155 -75 c85 -41 194 -93 243 -115z"/>
</g>
</svg>
